<svg width="16" height="15" viewBox="0 0 16 15" fill="none" xmlns="http://www.w3.org/2000/svg">
<path d="M14.6667 11.2327L15.0409 9.82281L12.6784 11.0247L13.6374 11.2327L14.2222 12.5963L16 11.718L14.6667 11.2327Z" fill="#2563EB"/>
<path d="M12.3977 11.7643L12.2573 11.1633C12.2573 11.1633 12.6082 11.1793 12.8538 11.2211C13.0994 11.263 13.4269 11.3482 13.4269 11.3482L12.3977 11.7643Z" fill="#2563EB"/>
<path d="M3.53216 11.7411L2.5731 11.3482C2.5731 11.3482 2.8538 11.2558 3.1345 11.2096C3.4152 11.1633 3.74269 11.1402 3.74269 11.1402L3.53216 11.7411Z" fill="#2563EB"/>
<path d="M2.31579 11.2327L3.29825 11.0015L2.17544 10.47L1.05263 9.84592L1.33333 11.2327L0 11.6949L1.73099 12.5963L2.31579 11.2327Z" fill="#2563EB"/>
<path d="M1.61404 13.4977L2.45614 11.4869C2.45614 11.4869 4.74854 12.7581 7.9883 12.7581C11.2281 12.7581 13.4971 11.51 13.4971 11.51L14.3626 13.4977C14.3626 13.4977 11.9064 15 7.9883 15C4.07018 15 1.61404 13.4977 1.61404 13.4977Z" fill="#2563EB"/>
<path d="M8.32749 13.4515H7.62573L7.62576 13.6826L8.23392 13.6826V13.9599L7.62576 13.9599L7.62573 14.2373H8.32749V14.5146H7.20468L7.25146 13.1279H8.32749V13.4515ZM10.1053 14.4684H9.73099L9.05263 13.775L9.07602 14.5146H8.70175L8.60819 13.1279H8.93567L9.61404 13.7982L9.56725 13.0817L9.94152 13.0354L10.1053 14.4684ZM5.61404 12.9199L5.9883 13.8213L6.59649 13.0586L6.92398 13.0817L6.76023 14.4915L6.38597 14.4684L6.45614 13.7288L6.0117 14.2604H5.82456L5.54386 13.5901L5.4269 14.3297L5.05263 14.2604L5.28658 12.8967L5.61404 12.9199ZM11.9532 14.0755L11.5556 14.1911L11.3918 13.9137L10.7836 14.0293L10.7368 14.3529L10.3392 14.4222L10.6901 12.8968L11.0643 12.8274L11.9532 14.0755ZM4.98246 12.8043L4.65497 14.1911L4.25731 14.0986L4.5848 12.7581L4.98246 12.8043ZM10.8538 13.7288L11.2281 13.6826L10.9474 13.2666L10.8538 13.7288Z" fill="white"/>
<path d="M8.49122 9.22188C8.30409 9.33744 8.13255 9.79969 8.07017 10.0539C8.07017 9.77658 7.78947 9.38367 7.64912 9.22188V8.14855L8.49122 8.19874V9.22188Z" fill="#E89A2B"/>
<path d="M8.91227 3.62866L8.49122 3.3282C8.49122 3.68082 8.50101 4.13396 8.50101 4.5846L7.64912 4.55114V3.5131L8.91227 2.61171L9.70759 3.12019V4.6348L8.91227 4.60134V3.62866Z" fill="#E89A2B"/>
<path d="M9.70759 8.29738C9.59531 8.27889 9.13059 8.59784 8.91227 8.75963V8.24894H9.70759V8.29738Z" fill="#E89A2B"/>
<path d="M9.75437 1.77966L7.27485 3.62866V4.53441L6.43275 4.51767V3.12019L9.75437 0.83205V1.77966Z" fill="#E89A2B"/>
<path d="M7.27485 8.75963C6.97543 8.51926 6.58869 8.35131 6.43275 8.29738V8.04815L7.27485 8.13181V8.75963Z" fill="#E89A2B"/>
<path d="M6.36257 1.77966V0.808937L7.92982 1.89522L7.22807 2.35747L6.36257 1.77966Z" fill="#E89A2B"/>
<path d="M8.21052 1.6641C8.28069 1.54854 8.95905 0.83205 7.99999 0C8.09356 0.647149 7.69088 0.577812 7.64912 0.970724C7.61268 1.31352 7.83371 1.49467 7.9766 1.6641C7.9766 1.6641 7.95321 0.924499 8.09356 0.924499C8.23391 0.924499 8.21052 1.6641 8.21052 1.6641Z" fill="#E89A2B"/>
<path d="M2.99413 5.89368C2.97578 6.58628 2.95959 6.21726 3.01752 7.71957C4.28068 10.2157 3.34501 9.19877 5.84793 10.9575C6.14557 11.2768 6.24559 11.5794 6.17541 12.1572C6.68068 12.2681 7.43077 12.2958 7.74266 12.2958C7.99997 9.12943 7.01752 9.24499 6.5029 8.80586C5.47366 8.36672 5.47366 8.18182 5.076 7.83513C4.2112 6.86441 3.88302 7.60401 4.02337 7.83513C4.33214 8.34361 5.26313 8.92142 5.40348 9.52234C4.98243 8.71341 4.65495 9.33744 3.97659 8.04314C3.62571 7.51156 3.55554 6.81818 3.53214 6.35593C3.48536 5.59322 2.99413 5.66256 2.99413 5.89368Z" fill="#2563EB"/>
<path d="M4.09355 7.28043C4.02337 7.28043 3.90641 7.49615 3.88302 7.58089C3.80245 7.38984 3.74147 6.95396 3.67249 6.51772C3.67249 6.28659 3.63715 6.10942 3.57893 5.89368C3.53214 5.15408 4.02337 5.40832 4.09355 5.70878V7.28043Z" fill="#2563EB"/>
<path d="M4.56138 7.23421H4.2105C4.2105 6.92604 4.2105 6.26348 4.2339 5.89368C4.25504 5.55946 4.60817 5.82434 4.63156 6.03236L4.56138 7.23421Z" fill="#2563EB"/>
<path d="M4.98243 7.58089C4.91226 7.46533 4.73292 7.34196 4.63156 7.30354C4.6392 7.16752 4.6425 7.03804 4.65495 6.95686C4.66215 6.86712 4.66375 6.76693 4.67834 6.70262C4.78321 6.24037 5.21635 6.42527 4.98243 7.58089Z" fill="#2563EB"/>
<path d="M13.0544 5.89368C13.0728 6.58628 13.0889 6.21726 13.031 7.71957C11.7679 10.2157 12.7035 9.19877 10.2006 10.9575C9.90296 11.2768 9.80295 11.5794 9.87312 12.1572C9.36786 12.2681 8.61777 12.2958 8.30588 12.2958C8.04857 9.12943 9.03102 9.24499 9.54564 8.80586C10.5749 8.36672 10.5749 8.18182 10.9725 7.83513C11.8373 6.86441 12.1655 7.60401 12.0252 7.83513C11.7164 8.34361 10.7854 8.92142 10.6451 9.52234C11.0661 8.71341 11.3936 9.33744 12.0719 8.04314C12.4228 7.51156 12.493 6.81818 12.5164 6.35593C12.5632 5.59322 13.0544 5.66256 13.0544 5.89368Z" fill="#2563EB"/>
<path d="M11.955 7.28043C12.0252 7.28043 12.1421 7.49615 12.1655 7.58089C12.2461 7.38984 12.3071 6.95396 12.376 6.51772C12.376 6.28659 12.4114 6.10942 12.4696 5.89368C12.5164 5.15408 12.0252 5.40832 11.955 5.70878V7.28043Z" fill="#2563EB"/>
<path d="M11.4872 7.23421H11.838C11.838 6.92604 11.838 6.26348 11.8146 5.89368C11.7935 5.55946 11.4404 5.82434 11.417 6.03236L11.4872 7.23421Z" fill="#2563EB"/>
<path d="M11.0661 7.58089C11.1363 7.46533 11.3156 7.34196 11.417 7.30354C11.4093 7.16752 11.406 7.03804 11.3936 6.95686C11.3864 6.86712 11.3848 6.76693 11.3702 6.70262C11.2653 6.24037 10.8322 6.42527 11.0661 7.58089Z" fill="#2563EB"/>
<path d="M14.9254 6.6514C15.1903 7.65148 15.2539 8.45948 15.0643 9.47612L14.7283 9.65682C14.9094 8.68531 14.8721 7.68631 14.619 6.73062C14.3659 5.77493 13.9032 4.88595 13.2636 4.12666C12.624 3.36737 11.8232 2.75637 10.918 2.33695C10.6386 2.20752 10.3514 2.0973 10.0584 2.00677V1.67962C10.3978 1.77942 10.7301 1.90431 11.0524 2.05365C11.9997 2.49255 12.8377 3.13193 13.507 3.92649C14.1763 4.72104 14.6605 5.65132 14.9254 6.6514Z" fill="#2563EB"/>
<path d="M2.54251 3.92317C3.2123 3.12902 4.05068 2.49015 4.99822 2.05182C5.34889 1.8896 5.71133 1.75632 6.08183 1.6528V1.97858C5.75772 2.07371 5.44036 2.19279 5.1325 2.3352C4.22702 2.75407 3.42586 3.36459 2.78579 4.12349C2.14573 4.88239 1.68242 5.7711 1.42871 6.72663C1.175 7.68217 1.13709 8.68114 1.31767 9.65277L0.935641 9.4299C0.746671 8.41314 0.856892 7.64715 1.12239 6.64723C1.38788 5.64731 1.87271 4.71732 2.54251 3.92317Z" fill="#2563EB"/>
<path d="M5.75765 4.2165C5.75765 4.4501 5.61757 4.65708 5.40203 4.78486C5.40203 4.88578 5.48671 5.01964 5.58831 5.12003C5.35123 5.12003 5.31524 5.04932 5.06335 4.92152C5.01568 4.92322 4.95999 4.92251 4.89401 4.91925C4.41703 4.91925 4.03036 4.60461 4.03036 4.2165C4.03036 3.82838 4.41703 3.51375 4.89401 3.51375C5.37099 3.51375 5.75765 3.82838 5.75765 4.2165Z" fill="#2563EB"/>
<path d="M10.4315 4.08264C10.4315 4.31624 10.5716 4.52323 10.7871 4.65101C10.7871 4.75192 10.7025 4.88578 10.6009 4.98617C10.8379 4.95271 10.9226 4.85232 11.075 4.78539C11.1227 4.78709 11.2292 4.78865 11.2952 4.78539C11.7721 4.78539 12.1588 4.47076 12.1588 4.08264C12.1588 3.69452 11.7721 3.37989 11.2952 3.37989C10.8182 3.37989 10.4315 3.69452 10.4315 4.08264Z" fill="#2563EB"/>
<path d="M9.55094 5.622L10.3469 5.63873C10.5839 4.53441 9.44934 4.81885 9.55094 5.622Z" fill="#E79A28"/>
<path d="M10.3469 7.01076L9.31385 6.96057C9.00903 8.08162 10.2791 8.63378 10.3469 7.01076Z" fill="#E79A28"/>
<path d="M9.23109 6.37494C9.39566 5.39283 9.36466 4.95271 9.87268 4.80212L6.68904 4.66826C6.50841 4.65711 6.11327 4.71846 6.0286 5.32082C5.95315 5.85759 5.84233 6.60919 5.77459 6.96057C5.7143 7.27329 5.72378 7.83672 6.40116 7.89757C6.99724 7.95111 8.67599 8.03142 9.43239 8.06489C8.95823 7.69678 9.09371 7.19482 9.23109 6.37494Z" fill="#E79A28"/>
<path d="M7.6224 7.39578L7.61456 7.56291L6.16407 7.49657L6.17191 7.32944L7.6224 7.39578Z" fill="white"/>
<path d="M8.7098 7.12826L8.69839 7.29522L6.19208 7.1279L6.20349 6.96094L8.7098 7.12826Z" fill="white"/>
<path d="M8.77512 6.72656L8.76609 6.89362L6.22595 6.7598L6.23498 6.5927L8.77512 6.72656Z" fill="white"/>
<path d="M8.81174 6.39208L8.79996 6.55898L6.26025 6.38437L6.27199 6.21744L8.81174 6.39208Z" fill="white"/>
<path d="M8.87448 6.02375L8.8677 6.15741L7.51296 6.09051L7.51974 5.95682L8.87448 6.02375Z" fill="white"/>
<path d="M7.45107 5.17024L7.3156 6.07378L6.29954 6.00685L6.43502 5.12001L7.45107 5.17024Z" fill="white"/>
<path d="M8.94222 5.65564L8.93544 5.7893L7.58069 5.7224L7.58747 5.58871L8.94222 5.65564Z" fill="white"/>
<path d="M9.00995 5.28753L9.00317 5.42119L7.64843 5.3543L7.65521 5.2206L9.00995 5.28753Z" fill="white"/>
</svg>
