<svg width="32" height="30" viewBox="0 0 32 30" fill="none" xmlns="http://www.w3.org/2000/svg">
<path d="M29.3333 22.4653L30.0819 19.6456L25.3567 22.0493L27.2749 22.4653L28.4444 25.1926L32 23.4361L29.3333 22.4653Z" fill="#2563EB"/>
<path d="M24.7953 23.5285L24.5146 22.3267C24.5146 22.3267 25.2164 22.3585 25.7076 22.4422C26.1988 22.5259 26.8538 22.6965 26.8538 22.6965L24.7953 23.5285Z" fill="#2563EB"/>
<path d="M7.06433 23.4823L5.1462 22.6965C5.1462 22.6965 5.7076 22.5116 6.26901 22.4191C6.83041 22.3267 7.48538 22.2804 7.48538 22.2804L7.06433 23.4823Z" fill="#2563EB"/>
<path d="M4.63158 22.4653L6.59649 22.0031L4.35088 20.9399L2.10526 19.6918L2.66667 22.4653L0 23.3898L3.46199 25.1926L4.63158 22.4653Z" fill="#2563EB"/>
<path d="M3.22807 26.9954L4.91228 22.9738C4.91228 22.9738 9.49708 25.5162 15.9766 25.5162C22.4561 25.5162 26.9942 23.02 26.9942 23.02L28.7251 26.9954C28.7251 26.9954 23.8129 30 15.9766 30C8.14035 30 3.22807 26.9954 3.22807 26.9954Z" fill="#2563EB"/>
<path d="M16.655 26.9029H15.2515L15.2515 27.3651L16.4678 27.3652V27.9199L15.2515 27.9198L15.2515 28.4746H16.655V29.0293H14.4094L14.5029 26.2558H16.655V26.9029ZM20.2105 28.9368H19.462L18.1053 27.5501L18.152 29.0293H17.4035L17.2164 26.2558H17.8713L19.2281 27.5963L19.1345 26.1633L19.883 26.0709L20.2105 28.9368ZM11.2281 25.8398L11.9766 27.6425L13.193 26.1171L13.848 26.1633L13.5205 28.9831L12.7719 28.9368L12.9123 27.4576L12.0234 28.5208H11.6491L11.0877 27.1803L10.8538 28.6595L10.1053 28.5208L10.5732 25.7935L11.2281 25.8398ZM23.9064 28.151L23.1111 28.3821L22.7836 27.8274L21.5673 28.0586L21.4737 28.7057L20.6784 28.8444L21.3801 25.7935L22.1287 25.6549L23.9064 28.151ZM9.96491 25.6086L9.30994 28.3821L8.51462 28.1972L9.16959 25.5162L9.96491 25.6086ZM21.7076 27.4576L22.4561 27.3652L21.8947 26.5332L21.7076 27.4576Z" fill="white"/>
<path d="M16.9824 18.4438C16.6082 18.6749 16.2651 19.5994 16.1403 20.1079C16.1403 19.5532 15.5789 18.7673 15.2982 18.4438V16.2971L16.9824 16.3975V18.4438Z" fill="#E89A2B"/>
<path d="M17.8245 7.25732L16.9824 6.6564C16.9824 7.36165 17.002 8.26793 17.002 9.16921L15.2982 9.10228V7.0262L17.8245 5.22342L19.4152 6.24037V9.2696L17.8245 9.20267V7.25732Z" fill="#E89A2B"/>
<path d="M19.4152 16.5948C19.1906 16.5578 18.2612 17.1957 17.8245 17.5193V16.4979H19.4152V16.5948Z" fill="#E89A2B"/>
<path d="M19.5087 3.55932L14.5497 7.25732V9.06881L12.8655 9.03535V6.24037L19.5087 1.6641V3.55932Z" fill="#E89A2B"/>
<path d="M14.5497 17.5193C13.9509 17.0385 13.1774 16.7026 12.8655 16.5948V16.0963L14.5497 16.2636V17.5193Z" fill="#E89A2B"/>
<path d="M12.7251 3.55932V1.61787L15.8596 3.79045L14.4561 4.71495L12.7251 3.55932Z" fill="#E89A2B"/>
<path d="M16.421 3.3282C16.5614 3.09707 17.9181 1.6641 16 0C16.1871 1.2943 15.3818 1.15562 15.2982 1.94145C15.2254 2.62704 15.6674 2.98934 15.9532 3.3282C15.9532 3.3282 15.9064 1.849 16.1871 1.849C16.4678 1.849 16.421 3.3282 16.421 3.3282Z" fill="#E89A2B"/>
<path d="M5.98827 11.7874C5.95157 13.1726 5.91919 12.4345 6.03505 15.4391C8.56136 20.4314 6.69002 18.3975 11.6959 21.9149C12.2911 22.5537 12.4912 23.1587 12.3508 24.3143C13.3614 24.5362 14.8615 24.5917 15.4853 24.5917C15.9999 18.2589 14.035 18.49 13.0058 17.6117C10.9473 16.7334 10.9473 16.3636 10.152 15.6703C8.42241 13.7288 7.76604 15.208 8.04674 15.6703C8.66428 16.6872 10.5263 17.8428 10.807 19.0447C9.96487 17.4268 9.3099 18.6749 7.95317 16.0863C7.25142 15.0231 7.11107 13.6364 7.06429 12.7119C6.97072 11.1864 5.98827 11.3251 5.98827 11.7874Z" fill="#2563EB"/>
<path d="M8.18709 14.5609C8.04674 14.5609 7.81282 14.9923 7.76604 15.1618C7.6049 14.7797 7.48293 13.9079 7.34499 13.0354C7.34499 12.5732 7.2743 12.2188 7.15785 11.7874C7.06429 10.3082 8.04674 10.8166 8.18709 11.4176V14.5609Z" fill="#2563EB"/>
<path d="M9.12276 14.4684H8.42101C8.42101 13.8521 8.42101 12.527 8.46779 11.7874C8.51008 11.1189 9.21633 11.6487 9.26311 12.0647L9.12276 14.4684Z" fill="#2563EB"/>
<path d="M9.96487 15.1618C9.82452 14.9307 9.46584 14.6839 9.26311 14.6071C9.27841 14.335 9.285 14.0761 9.3099 13.9137C9.32429 13.7342 9.3275 13.5339 9.35668 13.4052C9.56643 12.4807 10.4327 12.8505 9.96487 15.1618Z" fill="#2563EB"/>
<path d="M26.1088 11.7874C26.1455 13.1726 26.1779 12.4345 26.062 15.4391C23.5357 20.4314 25.4071 18.3975 20.4012 21.9149C19.8059 22.5537 19.6059 23.1587 19.7462 24.3143C18.7357 24.5362 17.2355 24.5917 16.6118 24.5917C16.0971 18.2589 18.062 18.49 19.0913 17.6117C21.1498 16.7334 21.1498 16.3636 21.9451 15.6703C23.6747 13.7288 24.331 15.208 24.0503 15.6703C23.4328 16.6872 21.5708 17.8428 21.2901 19.0447C22.1322 17.4268 22.7872 18.6749 24.1439 16.0863C24.8457 15.0231 24.986 13.6364 25.0328 12.7119C25.1264 11.1864 26.1088 11.3251 26.1088 11.7874Z" fill="#2563EB"/>
<path d="M23.91 14.5609C24.0503 14.5609 24.2842 14.9923 24.331 15.1618C24.4922 14.7797 24.6141 13.9079 24.7521 13.0354C24.7521 12.5732 24.8228 12.2188 24.9392 11.7874C25.0328 10.3082 24.0503 10.8166 23.91 11.4176V14.5609Z" fill="#2563EB"/>
<path d="M22.9743 14.4684H23.6761C23.6761 13.8521 23.6761 12.527 23.6293 11.7874C23.587 11.1189 22.8807 11.6487 22.834 12.0647L22.9743 14.4684Z" fill="#2563EB"/>
<path d="M22.1322 15.1618C22.2726 14.9307 22.6312 14.6839 22.834 14.6071C22.8187 14.335 22.8121 14.0761 22.7872 13.9137C22.7728 13.7342 22.7696 13.5339 22.7404 13.4052C22.5306 12.4807 21.6644 12.8505 22.1322 15.1618Z" fill="#2563EB"/>
<path d="M29.8508 13.3028C30.3806 15.303 30.5077 16.919 30.1285 18.9522L29.4565 19.3136C29.8189 17.3706 29.7443 15.3726 29.2381 13.4612C28.7318 11.5499 27.8063 9.77189 26.5271 8.25332C25.2479 6.73475 23.6464 5.51274 21.8359 4.67391C21.2772 4.41503 20.7028 4.19461 20.1169 4.01354V3.35925C20.7956 3.55884 21.4602 3.80861 22.1048 4.1073C23.9994 4.9851 25.6753 6.26386 27.0139 7.85297C28.3526 9.44208 29.321 11.3026 29.8508 13.3028Z" fill="#2563EB"/>
<path d="M5.08502 7.84634C6.42461 6.25804 8.10136 4.98029 9.99644 4.10364C10.6978 3.77921 11.4227 3.51265 12.1637 3.30559V3.95716C11.5154 4.14743 10.8807 4.38558 10.265 4.67041C8.45404 5.50815 6.85172 6.72918 5.57158 8.24698C4.29145 9.76478 3.36484 11.5422 2.85742 13.4533C2.35 15.3643 2.27418 17.3623 2.63534 19.3055L1.87128 18.8598C1.49334 16.8263 1.71378 15.2943 2.24478 13.2945C2.77577 11.2946 3.74542 9.43464 5.08502 7.84634Z" fill="#2563EB"/>
<path d="M11.5153 8.43299C11.5153 8.9002 11.2351 9.31417 10.8041 9.56973C10.8041 9.77156 10.9734 10.0393 11.1766 10.2401C10.7025 10.2401 10.6305 10.0986 10.1267 9.84305C10.0314 9.84645 9.91997 9.84501 9.78801 9.83849C8.83405 9.83849 8.06072 9.20923 8.06072 8.43299C8.06072 7.65676 8.83405 7.02749 9.78801 7.02749C10.742 7.02749 11.5153 7.65676 11.5153 8.43299Z" fill="#2563EB"/>
<path d="M20.863 8.16528C20.863 8.63249 21.1432 9.04646 21.5743 9.30201C21.5743 9.50385 21.4049 9.77156 21.2017 9.97235C21.6759 9.90542 21.8452 9.70463 22.15 9.57078C22.2454 9.57418 22.4584 9.5773 22.5903 9.57078C23.5443 9.57078 24.3176 8.94151 24.3176 8.16528C24.3176 7.38904 23.5443 6.75978 22.5903 6.75978C21.6364 6.75978 20.863 7.38904 20.863 8.16528Z" fill="#2563EB"/>
<path d="M19.1019 11.244L20.6937 11.2775C21.1679 9.06882 18.8987 9.63771 19.1019 11.244Z" fill="#E79A28"/>
<path d="M20.6937 14.0215L18.6277 13.9211C18.0181 16.1632 20.5582 17.2676 20.6937 14.0215Z" fill="#E79A28"/>
<path d="M18.4622 12.7499C18.7913 10.7857 18.7293 9.90542 19.7454 9.60424L13.3781 9.33653C13.0168 9.31422 12.2265 9.43692 12.0572 10.6416C11.9063 11.7152 11.6847 13.2184 11.5492 13.9211C11.4286 14.5466 11.4476 15.6734 12.8023 15.7951C13.9945 15.9022 17.352 16.0628 18.8648 16.1298C17.9165 15.3936 18.1874 14.3896 18.4622 12.7499Z" fill="#E79A28"/>
<path d="M15.2448 14.7916L15.2291 15.1258L12.3281 14.9931L12.3438 14.6589L15.2448 14.7916Z" fill="white"/>
<path d="M17.4196 14.2565L17.3968 14.5904L12.3842 14.2558L12.407 13.9219L17.4196 14.2565Z" fill="white"/>
<path d="M17.5502 13.4531L17.5322 13.7872L12.4519 13.5196L12.47 13.1854L17.5502 13.4531Z" fill="white"/>
<path d="M17.6235 12.7842L17.5999 13.118L12.5205 12.7687L12.544 12.4349L17.6235 12.7842Z" fill="white"/>
<path d="M17.749 12.0475L17.7354 12.3148L15.0259 12.181L15.0395 11.9136L17.749 12.0475Z" fill="white"/>
<path d="M14.9021 10.3405L14.6312 12.1476L12.5991 12.0137L12.87 10.24L14.9021 10.3405Z" fill="white"/>
<path d="M17.8844 11.3113L17.8709 11.5786L15.1614 11.4448L15.1749 11.1774L17.8844 11.3113Z" fill="white"/>
<path d="M18.0199 10.5751L18.0063 10.8424L15.2969 10.7086L15.3104 10.4412L18.0199 10.5751Z" fill="white"/>
</svg>
